# xmcd CD database file
# Copyright (C) 1993-1998 Ti Kan
#
# Track frame offsets:
# 150
# 17552
# 36827
# 52642
# 74402
# 91947
# 108010
# 121287
# 143017
# 161787
# 180087
# 198705
#
# Disc length: 2935 seconds
# Revision: 0
# Processed by: cddbd v1.4b41PL1 Copyright (c) Steve Scherf et al.
# Submitted via: CDSpectrumPro v3.2.328
#
DISCID=920b750c
DTITLE=Various Artist - Featuring...Ice Cube
DYEAR=1900
DGENRE=
TTITLE0=Cube and KHOP - Band a Corner Wit Me
TTITLE1=Cube  and Dr.Dre - Natural Born Killaz
TTITLE2=Westside Connection - Bow Down
TTITLE3=Cube George Clinton - Bop Gun ( One Nation )
TTITLE4=Cube Das Efx - Check Yo Self
TTITLE5=Tales from the Dark Side - Endangered Species
TTITLE6=Cube Ice T - Trespass
TTITLE7=Cube Yo-Yo  - It's a Man's World
TTITLE8=Cube WC and the Maad Circle - West Up!
TTITLE9=Cube Scare Face Dr. Dre - Game Over
TTITLE10=Cube Mr. Mike - Wicked Wayz
TTITLE11=Cube Kool G Rap and D.J. Polo - Two To The Head
EXTD=Ice Cube and various artists.
EXTT0=
EXTT1=
EXTT2=
EXTT3=
EXTT4=
EXTT5=
EXTT6=
EXTT7=
EXTT8=
EXTT9=Jaysin1@mailexcite.com
EXTT10=
EXTT11=
PLAYORDER=
